<svg xmlns="http://www.w3.org/2000/svg" width="40" height="40" viewBox="0 0 40 40"><defs><style>.a{fill:#cbe2ff;}.b{fill:#bed8fb;}.c{fill:#365e7d;}.d{fill:#2b4d66;}.e{fill:#4a80aa;}.f{fill:#407093;}.g{fill:#e4f6ff;}.h{fill:#e28086;}.i{fill:#dd636e;}.j{fill:#ffddce;}.k{fill:#ffcbbe;}.l{fill:#f4fbff;}</style></defs><g transform="translate(0 0)"><g transform="translate(0 0)"><g transform="translate(0 0.012)"><path class="a" d="M20,37.9l7.924-2A20.478,20.478,0,0,0,19.314.149,20,20,0,0,0,5.923,34.343Z" transform="translate(0 -0.149)"/></g><g transform="translate(17.458)"><path class="b" d="M240.915,20a19.969,19.969,0,0,1-8.029,16.022l7.19-1.816A20,20,0,0,0,226,0a20.2,20.2,0,0,0-2.542.16A20,20,0,0,1,240.915,20Z" transform="translate(-223.457 0)"/></g><g transform="translate(5.471 5.725)"><path class="c" d="M172.36,75.128a1.85,1.85,0,0,0-1.85-1.85h-6.374a4.257,4.257,0,0,0-4.257,4.257v4.726H174.9V77.6a1.849,1.849,0,0,0-1.85-1.85h-.062a.625.625,0,0,1-.625-.625Z" transform="translate(-152.861 -73.278)"/><path class="d" d="M290.237,75.751h-.062a.625.625,0,0,1-.625-.625,1.85,1.85,0,0,0-1.85-1.85H287V82.26h5.085V77.6A1.849,1.849,0,0,0,290.237,75.751Z" transform="translate(-270.051 -73.277)"/><path class="e" d="M97.767,336.811a4.434,4.434,0,0,0-1.78-1.074l-5.46-1.729-5.965-.21-5.967.21-5.46,1.729a4.444,4.444,0,0,0-3.1,4.237v1.492a19.942,19.942,0,0,0,13.842,6.244A20.514,20.514,0,0,0,97.767,336.811Z" transform="translate(-70.032 -313.446)"/><path class="f" d="M240.583,373.571v-1.492a4.443,4.443,0,0,0-1.649-3.454,20.017,20.017,0,0,1-15.418,11.04,20.179,20.179,0,0,0,2.5.161,21.39,21.39,0,0,0,2.408-.139A19.948,19.948,0,0,0,240.583,373.571Z" transform="translate(-211.526 -345.551)"/><path class="g" d="M208.362,331.068c1.21-2.4,4.361-9.224,3.463-13.485l-3.914-1.523-3.918,1.523c-.926,4.393,2.451,11.506,3.569,13.694Q207.965,331.181,208.362,331.068Z" transform="translate(-193.381 -297.093)"/><path class="h" d="M228.879,410.116l-1.587-6.244h-1.857l-1.583,6.227,1.958,2.179q.745-.171,1.47-.4Z" transform="translate(-211.835 -378.044)"/><path class="i" d="M244.749,498.743c.162,0,.325.007.488.007.189,0,.377,0,.564-.009l1.008-1.114a19.842,19.842,0,0,1-2.446.686Z" transform="translate(-230.743 -464.476)"/><g transform="translate(7.019 5.011)"><g transform="translate(4.165 11.382)"><path class="j" d="M219.88,286.638v-3.521h-6.686v3.521c0,1.846,3.343,3.863,3.343,3.863S219.88,288.484,219.88,286.638Z" transform="translate(-213.194 -283.117)"/></g><path class="j" d="M174.9,140.775h-1.278a1.287,1.287,0,0,1-1.287-1.287v-.7a1.359,1.359,0,0,0-1.785-1.29,10.062,10.062,0,0,1-6.314,0h0a1.359,1.359,0,0,0-1.785,1.29v.7a1.287,1.287,0,0,1-1.287,1.287H159.88v2.1a.974.974,0,0,0,.974.974.32.32,0,0,1,.318.3,6.229,6.229,0,0,0,12.432,0,.32.32,0,0,1,.318-.3.974.974,0,0,0,.974-.974v-2.1Z" transform="translate(-159.88 -137.424)"/><path class="k" d="M254.188,140.778a1.287,1.287,0,0,1-1.287-1.287v-.7a1.359,1.359,0,0,0-1.785-1.29q-.364.12-.735.211v6.951a6.227,6.227,0,0,1-3.1,5.294,6.222,6.222,0,0,0,6.9-5.794.32.32,0,0,1,.318-.3.974.974,0,0,0,.974-.974v-2.1h-1.278Z" transform="translate(-240.45 -137.427)"/></g><g transform="translate(8.563 18.967)"><path class="l" d="M182.258,316.06l-2.622,2.13,2.749,3.4a.911.911,0,0,0,1.219.046l2.068-1.727Z" transform="translate(-179.636 -316.06)"/><path class="l" d="M260.171,316.06l-3.273,3.849,1.943,1.662a.911.911,0,0,0,1.223-.035l2.73-3.345Z" transform="translate(-250.862 -316.06)"/></g><path class="c" d="M162.566,316.06l-3.848,1.891a.583.583,0,0,0-.261.79l.754,1.462a.979.979,0,0,1-.178,1.141l-.469.468a.977.977,0,0,0-.24,1c.91,2.775,5.291,7.018,6.949,8.553l.335.006C164.405,329.028,160.145,320.144,162.566,316.06Z" transform="translate(-151.381 -297.093)"/><path class="c" d="M266.441,321.344a.979.979,0,0,1-.178-1.141l.754-1.462a.583.583,0,0,0-.261-.79l-3.848-1.891c2.42,4.082-1.837,12.963-3.041,15.3l.339-.009c1.661-1.539,6.035-5.777,6.944-8.549a.977.977,0,0,0-.24-1Z" transform="translate(-245.036 -297.093)"/><path class="i" d="M232.874,365.327l-2.036,1.7,1.037,1.311h1.857l1.037-1.388Z" transform="translate(-218.275 -342.511)"/></g></g></g></svg>